<svg xmlns="http://www.w3.org/2000/svg" viewBox="0 0 1106.4 680.04"><defs><style>.cls-1{fill:#180a07;}</style></defs><title>Asset 1</title><g id="Layer_2" data-name="Layer 2"><g id="hair"><path class="cls-1" d="M397.26,7.44c6.1-.61,12.91,8.77,18.5,8.24,6.13-.58,11.06-11.07,16.64-11.55,6.15-.54,12.79,9,18.36,8.54,6.17-.47,11.33-10.84,16.89-11.18,6.17-.38,12.53,9.3,18.11,9.06C491.9,10.29,497.42.11,503,0c6.07-.12,12,9.84,17.69,9.87,5.94,0,11.93-9.86,17.77-9.7s11.25,10.38,17.23,10.65c5.67.26,12-9.43,18.07-9.1,5.61.31,10.89,10.62,17,11,5.58.31,12-9.35,18.13-9,5.57.3,10.9,10.6,17.06,10.91,5.59.28,11.91-9.43,18.07-9.15,5.6.25,11,10.49,17.16,10.74,5.62.22,11.86-9.55,18-9.34,5.65.2,11.18,10.39,17.28,10.57,4.84.15,13.38-9.71,24.39-9.55,7,.11,15,10.22,24,10.36,7.48.12,15.74-9.74,24.33-9.59,7.68.14,15.57,10.3,24,10.48,7.8.17,16.11-9.64,24.39-9.43,7.89.2,15.68,10.42,23.88,10.67,7.95.24,16.34-9.5,24.48-9.21s15.68,10.59,23.76,10.92,16.57-9.29,24.6-8.9S929.92,24,937.89,24.43c8.15.48,16.84-9,24.75-8.45,8.21.56,15.51,11.14,23.34,11.79,8.29.69,17.26-8.53,25-7.74,8.41.86,15.28,11.72,22.85,12.71,8.61,1.13,18.16-7.52,25.42-6.2,9.11,1.65,14.7,13.15,21.2,15.12,11.83,3.59,25.29,2.28,25.94,7.07.61,4.55-10.19,12.49-12.29,23.56-1.29,6.8,6.76,16.77,4.68,25.55-1.7,7.2-13.36,12.6-15.49,20.91-1.89,7.37,5.74,17.67,3.58,25.77-2,7.47-13.73,12.62-15.89,20.6-2,7.54,5.49,17.9,3.34,25.79-2.07,7.6-13.83,12.72-16,20.56-2.08,7.64,5.48,18,3.38,25.79S1048,250.13,1045.9,257.9s5.61,18,3.63,25.76-13.67,13.13-15.58,20.85,5.88,18,4.07,25.7c-1.87,7.93-13.41,13.53-15.09,21.2-1.76,8,6.37,17.92,4.85,25.56-1.61,8.14-12.91,14.23-14.19,21.81-1.41,8.32,7.3,17.72,6.37,25.21-1.06,8.61-11.74,15.78-12.07,23.08-.48,10.64,7.2,23.25,3.58,34.07-3.33,9.95-17,15.74-23,25.61-5.41,9-3.83,23.69-11.37,32.42-6.86,7.93-21.7,8.72-30.31,16.33-7.89,7-10.31,21.62-19.65,28.23-8.63,6.11-23.28,3.63-33.14,9.35-9.18,5.32-14.22,19.29-24.45,24.21-9.6,4.61-23.68-.11-34.19,4.11-9.91,4-16.78,17.13-27.5,20.71-10.15,3.38-23.56-3-34.43,0-10.33,2.85-18.57,15.21-29.55,17.67-10.48,2.35-23.22-5.29-34.28-3.32-10.58,1.89-19.88,13.47-31,15-10.66,1.46-22.74-7.19-33.89-6.09-10.72,1.06-20.86,11.92-32,12.62-10.77.69-22.21-8.78-33.39-8.44-10.79.33-21.62,10.5-32.8,10.5-10.58,0-20.82-10.16-31-10.48-10.58-.32-21.44,9.18-31.64,8.54-10.57-.67-20.13-11.47-30.29-12.46-10.56-1-22,7.71-32.14,6.36-10.52-1.4-19.29-12.86-29.33-14.59-10.47-1.81-22.58,6-32.52,3.91-10.41-2.23-18.23-14.36-28.06-16.91-10.32-2.68-23.06,4.09-32.74,1.09-10.21-3.16-16.87-16-26.37-19.42-10.07-3.68-23.42,1.78-32.68-2.19-9.9-4.23-15.12-17.68-24.09-22.19-9.67-4.85-23.59-1.07-32.17-6.15-9.38-5.54-12.69-19.59-20.77-25.3-9-6.36-23.35-4.92-30.74-11.33-8.46-7.34-8.83-21.75-15.17-29-7.62-8.66-21.82-11.38-26.36-19.48-5.93-10.58.13-23.3-.5-32.13-.46-6.48-11.69-14.58-13.66-26.12-1.37-8,6.78-18.92,4.84-28.91-1.64-8.42-13.27-15.51-15.24-25.07-1.77-8.61,6.13-19.68,4.15-29-1.85-8.73-13.55-15.66-15.53-24.89-1.89-8.81,5.94-19.92,4-29.06-1.92-8.88-13.64-15.77-15.6-24.85s5.91-20,4-29.06-13.63-15.92-15.53-24.9,6-20.12,4.12-29.05c-1.9-9.11-13.55-16.13-15.35-25-1.86-9.2,6.15-20.19,4.43-29-1.81-9.31-13.35-16.51-15-25.25-1.73-9.46,6.52-20.27,5.08-28.88C13,89.54,1.7,81.9.55,73.51c-1.42-10.35,7.5-20.6,7-28.43-1-14-9.56-26-7-29.68,3.33-4.8,15,.44,25.61-.68C32.52,14,39.9,3.93,49,4.16c7,.18,14.31,10.57,22.82,11.12C79,15.74,87.42,6.33,95.7,7,103,7.5,110,18.07,118.19,18.68c7.41.55,15.87-8.87,23.95-8.33,7.46.5,14.6,11,22.63,11.43,7.51.42,15.77-9.17,23.77-8.82,7.55.33,14.94,10.61,22.91,10.85C219,24,227,14.21,235,14.33c7.6.11,15.3,10.17,23.23,10.16,7.62,0,15.29-10.08,23.21-10.22C289,14.14,297,23.94,305,23.67c7.63-.26,15-10.57,22.86-11,7.63-.39,16,9.14,23.84,8.61,7.64-.51,14.63-11.07,22.49-11.73C381.77,8.94,389.42,8.23,397.26,7.44Z"/></g></g></svg>